<svg width="31" height="31" viewBox="0 0 31 31" fill="none" xmlns="http://www.w3.org/2000/svg">
<path d="M31 15.5C31 24.0604 24.0604 31 15.5 31C6.93959 31 0 24.0604 0 15.5C0 6.93959 6.93959 0 15.5 0C24.0604 0 31 6.93959 31 15.5Z" fill="#222222"/>
<path d="M13.6705 23.6525C12.7828 24.0043 11.9303 24.1755 11.1129 24.166C10.2955 24.1565 9.56161 23.9538 8.91122 23.558C8.27236 23.1576 7.78378 22.5643 7.44548 21.778L10.5925 20.5307C10.8168 20.9621 11.1095 21.2462 11.4706 21.3832C11.8271 21.5087 12.2186 21.4869 12.6451 21.3178C13.0832 21.1442 13.3902 20.9092 13.5661 20.6127C13.7375 20.3047 13.7524 19.972 13.6107 19.6147C13.4919 19.3149 13.29 19.1082 13.0048 18.9945C12.7312 18.8762 12.4194 18.813 12.0694 18.805C11.7309 18.7924 11.2588 18.8128 10.6531 18.8661C9.77325 18.9347 9.03752 18.9462 8.44589 18.9006C7.85425 18.855 7.2861 18.6666 6.74143 18.3356C6.19675 18.0046 5.77365 17.4587 5.47211 16.6979C5.02438 15.5682 5.0841 14.5241 5.65128 13.5657C6.2139 12.5958 7.15228 11.8504 8.46644 11.3296C9.80364 10.7996 11.0094 10.6952 12.0837 11.0164C13.1535 11.326 13.9433 12.04 14.4532 13.1584L11.2543 14.4263C11.0759 14.0435 10.8108 13.7951 10.4588 13.6811C10.1023 13.5557 9.71655 13.5752 9.30156 13.7396C8.9442 13.8813 8.69484 14.0935 8.55349 14.3763C8.40756 14.6475 8.40541 14.9618 8.54704 15.3192C8.70238 15.7111 9.00789 15.9435 9.46358 16.0163C9.91927 16.0891 10.5893 16.097 11.4737 16.04C12.3627 15.9944 13.0972 15.9967 13.6773 16.0469C14.2689 16.0926 14.8348 16.2751 15.3749 16.5946C15.915 16.9141 16.329 17.4369 16.6168 18.1632C16.8909 18.8548 16.9613 19.5539 16.8278 20.2604C16.7058 20.9623 16.3768 21.6129 15.8407 22.2122C15.3045 22.8115 14.5811 23.2916 13.6705 23.6525Z" fill="white"/>
<path d="M21.9744 20.3614C21.0868 20.7132 20.2343 20.8844 19.4169 20.8749C18.5995 20.8654 17.8656 20.6627 17.2152 20.2669C16.5763 19.8665 16.0877 19.2732 15.7494 18.4869L18.8965 17.2397C19.1208 17.671 19.4135 17.9551 19.7745 18.0921C20.1311 18.2176 20.5226 18.1958 20.9491 18.0268C21.3871 17.8532 21.6941 17.6181 21.8701 17.3216C22.0415 17.0136 22.0563 16.6809 21.9147 16.3236C21.7959 16.0239 21.5939 15.8171 21.3088 15.7034C21.0351 15.5851 20.7233 15.5219 20.3733 15.5139C20.0349 15.5013 19.5628 15.5217 18.957 15.5751C18.0772 15.6436 17.3415 15.6551 16.7498 15.6095C16.1582 15.5639 15.5901 15.3756 15.0454 15.0446C14.5007 14.7136 14.0776 14.1676 13.7761 13.4068C13.3283 12.2771 13.3881 11.2331 13.9552 10.2747C14.5179 9.30472 15.4562 8.55934 16.7704 8.03851C18.1076 7.50854 19.3134 7.40413 20.3877 7.7253C21.4574 8.03495 22.2473 8.74896 22.7572 9.86736L19.5583 11.1352C19.3799 10.7524 19.1147 10.504 18.7628 10.3901C18.4063 10.2646 18.0205 10.2841 17.6055 10.4486C17.2482 10.5902 16.9988 10.8024 16.8575 11.0852C16.7115 11.3564 16.7094 11.6707 16.851 12.0281C17.0063 12.42 17.3119 12.6524 17.7675 12.7252C18.2232 12.7981 18.8933 12.8059 19.7777 12.7489C20.6666 12.7033 21.4012 12.7057 21.9813 12.7559C22.5729 12.8015 23.1388 12.984 23.6789 13.3035C24.219 13.623 24.633 14.1458 24.9208 14.8721C25.1949 15.5637 25.2652 16.2628 25.1317 16.9693C25.0098 17.6712 24.6807 18.3218 24.1446 18.9211C23.6085 19.5204 22.8851 20.0005 21.9744 20.3614Z" fill="white"/>
</svg>
